<svg width="25" height="25" viewBox="0 0 25 25" fill="none" xmlns="http://www.w3.org/2000/svg">
<path fill-rule="evenodd" clip-rule="evenodd" d="M16.163 4.27342C14.3902 3.48352 12.4096 3.28783 10.5166 3.71555C8.62351 4.14326 6.91942 5.17145 5.65845 6.64678C4.39749 8.12211 3.64721 9.96552 3.51951 11.9021C3.39181 13.8387 3.89354 15.7646 4.94987 17.3928C6.00619 19.0209 7.56051 20.264 9.38102 20.9365C11.2015 21.6091 13.1907 21.6752 15.0518 21.1249C16.913 20.5746 18.5464 19.4375 19.7084 17.8831C20.8705 16.3286 21.4989 14.4402 21.5 12.4994V11.58C21.5 11.0277 21.9477 10.58 22.5 10.58C23.0523 10.58 23.5 11.0277 23.5 11.58V12.5C23.4986 14.8721 22.7306 17.1807 21.3103 19.0806C19.89 20.9804 17.8936 22.3703 15.6189 23.0428C13.3442 23.7154 10.913 23.6346 8.68792 22.8126C6.46285 21.9906 4.56312 20.4713 3.27206 18.4813C1.98099 16.4914 1.36777 14.1374 1.52384 11.7705C1.67992 9.40358 2.59693 7.15052 4.13811 5.34734C5.67929 3.54416 7.76206 2.28748 10.0758 1.76472C12.3896 1.24196 14.8103 1.48113 16.977 2.44656C17.4815 2.67134 17.7082 3.26252 17.4834 3.76699C17.2587 4.27146 16.6675 4.4982 16.163 4.27342Z" fill="#243443"/>
<path fill-rule="evenodd" clip-rule="evenodd" d="M23.2068 3.79254C23.5975 4.18287 23.5978 4.81603 23.2075 5.20675L13.2075 15.2168C13.02 15.4044 12.7656 15.5099 12.5002 15.51C12.2349 15.5101 11.9805 15.4047 11.7929 15.2171L8.79289 12.2171C8.40237 11.8266 8.40237 11.1934 8.79289 10.8029C9.18342 10.4124 9.81658 10.4124 10.2071 10.8029L12.4996 13.0954L21.7925 3.79325C22.1829 3.40253 22.816 3.40221 23.2068 3.79254Z" fill="#243443"/>
</svg>
