<svg width="50" height="50" viewBox="0 0 50 50" fill="none" xmlns="http://www.w3.org/2000/svg">
<path d="M17.75 1.5625C18.3023 1.5625 18.75 2.01022 18.75 2.5625L18.75 13.2812C18.75 14.1442 18.0504 14.8438 17.1875 14.8438C16.3246 14.8438 15.625 14.1442 15.625 13.2813L15.625 2.5625C15.625 2.01022 16.0727 1.5625 16.625 1.5625L17.75 1.5625Z" fill="#F79E1B"/>
<path d="M6.25 29.6875C6.25 28.8246 6.94956 28.125 7.8125 28.125H18.75C19.6129 28.125 20.3125 28.8246 20.3125 29.6875V31.25C20.3125 32.1129 19.6129 32.8125 18.75 32.8125H7.8125C6.94956 32.8125 6.25 32.1129 6.25 31.25V29.6875Z" fill="#F79E1B"/>
<path d="M38.0625 7.8125C38.6148 7.8125 39.0625 8.26022 39.0625 8.8125V14.0625C39.0625 14.9254 38.3629 15.625 37.5 15.625C36.6371 15.625 35.9375 14.9254 35.9375 14.0625V8.8125C35.9375 8.26022 36.3852 7.8125 36.9375 7.8125H38.0625Z" fill="#F79E1B"/>
<path d="M5.46875 2.34375V1.84375C5.19261 1.84375 4.96875 2.06761 4.96875 2.34375H5.46875ZM28.9062 2.34375H29.4062C29.4062 2.06761 29.1824 1.84375 28.9062 1.84375V2.34375ZM2.34375 24.2188V23.7188C2.06761 23.7188 1.84375 23.9426 1.84375 24.2188H2.34375ZM47.6562 24.2188H48.1562C48.1562 23.9426 47.9324 23.7188 47.6562 23.7188V24.2188ZM28.9062 8.59375V8.09375C28.6301 8.09375 28.4062 8.31761 28.4062 8.59375H28.9062ZM46.0938 8.59375H46.5938C46.5938 8.31761 46.3699 8.09375 46.0938 8.09375V8.59375ZM5.46875 2.84375H28.9062V1.84375H5.46875V2.84375ZM28.4062 2.34375V21.0938H29.4062V2.34375H28.4062ZM25.7812 23.7188H8.59375V24.7188H25.7812V23.7188ZM5.96875 21.0938V2.34375H4.96875V21.0938H5.96875ZM8.59375 23.7188C7.144 23.7188 5.96875 22.5435 5.96875 21.0938H4.96875C4.96875 23.0958 6.59172 24.7188 8.59375 24.7188V23.7188ZM28.4062 21.0938C28.4062 22.5435 27.231 23.7188 25.7812 23.7188V24.7188C27.7833 24.7188 29.4062 23.0958 29.4062 21.0938H28.4062ZM47.1562 24.2188V44.5312H48.1562V24.2188H47.1562ZM2.84375 44.5312V24.2188H1.84375V44.5312H2.84375ZM5.46875 47.1562C4.019 47.1562 2.84375 45.981 2.84375 44.5312H1.84375C1.84375 46.5333 3.46672 48.1562 5.46875 48.1562V47.1562ZM47.1562 44.5312C47.1562 45.981 45.981 47.1562 44.5312 47.1562V48.1562C46.5333 48.1562 48.1562 46.5333 48.1562 44.5312H47.1562ZM28.9062 9.09375H46.0938V8.09375H28.9062V9.09375ZM45.5938 8.59375V21.0938H46.5938V8.59375H45.5938ZM42.9688 23.7188H32.0312V24.7188H42.9688V23.7188ZM29.4062 21.0938V8.59375H28.4062V21.0938H29.4062ZM32.0312 23.7188C30.5815 23.7188 29.4062 22.5435 29.4062 21.0938H28.4062C28.4062 23.0958 30.0292 24.7188 32.0312 24.7188V23.7188ZM45.5938 21.0938C45.5938 22.5435 44.4185 23.7188 42.9688 23.7188V24.7188C44.9708 24.7188 46.5938 23.0958 46.5938 21.0938H45.5938ZM2.34375 24.7188H28.9062V23.7188H2.34375V24.7188ZM28.9062 24.7188H47.6562V23.7188H28.9062V24.7188ZM44.5312 47.1562H28.9062V48.1562H44.5312V47.1562ZM28.9062 47.1562H5.46875V48.1562H28.9062V47.1562ZM28.4062 24.2188V47.6562H29.4062V24.2188H28.4062Z" fill="#243443"/>
</svg>
