<svg width="24" height="24" viewBox="0 0 24 24" fill="none" xmlns="http://www.w3.org/2000/svg">
<path fill-rule="evenodd" clip-rule="evenodd" d="M21 5C21.5523 5 22 5.44771 22 6L22 10C22 10.5523 21.5523 11 21 11L11 11C10.4477 11 10 10.5523 10 10L10 6C10 5.44771 10.4477 5 11 5L21 5ZM20 7L12 7L12 9L20 9L20 7Z" fill="#AAAAAA"/>
<path fill-rule="evenodd" clip-rule="evenodd" d="M21 13C21.5523 13 22 13.4477 22 14L22 18C22 18.5523 21.5523 19 21 19L11 19C10.4477 19 10 18.5523 10 18L10 14C10 13.4477 10.4477 13 11 13L21 13ZM20 15L12 15L12 17L20 17L20 15Z" fill="#AAAAAA"/>
<path fill-rule="evenodd" clip-rule="evenodd" d="M8 5C8.55229 5 9 5.44771 9 6L9 10C9 10.5523 8.55228 11 8 11L4 11C3.44772 11 3 10.5523 3 10L3 6C3 5.44771 3.44772 5 4 5L8 5ZM7 7L5 7L5 9L7 9L7 7Z" fill="#AAAAAA"/>
<path fill-rule="evenodd" clip-rule="evenodd" d="M8 13C8.55228 13 9 13.4477 9 14L9 18C9 18.5523 8.55228 19 8 19L4 19C3.44772 19 3 18.5523 3 18L3 14C3 13.4477 3.44772 13 4 13L8 13ZM7 15L5 15L5 17L7 17L7 15Z" fill="#AAAAAA"/>
</svg>
