<svg width="76" height="21" viewBox="0 0 76 21" fill="none" xmlns="http://www.w3.org/2000/svg">
<path d="M7.09244 20.0073C13.1884 20.0073 16.8812 16.2364 16.8812 9.98413C16.8812 3.75137 13.1884 0 7.15106 0H0V20.0073H7.09244ZM4.23007 16.383V3.62438H6.92636C10.6777 3.62438 12.6609 5.53914 12.6609 9.98413C12.6609 14.4487 10.6777 16.383 6.9166 16.383H4.23007Z" fill="#243443"/>
<path d="M24.2154 20.2906C26.433 20.2906 27.8691 19.3235 28.6018 17.9265H28.719V20.0073H32.6658V9.88643C32.6658 6.3109 29.6373 4.80645 26.2963 4.80645C22.7012 4.80645 20.337 6.52583 19.7607 9.2612L23.6097 9.57382C23.893 8.57736 24.782 7.84467 26.2767 7.84467C27.6932 7.84467 28.5041 8.55782 28.5041 9.78874V9.84736C28.5041 10.8145 27.4783 10.9415 24.87 11.1955C21.9001 11.469 19.2331 12.4655 19.2331 15.8163C19.2331 18.7862 21.353 20.2906 24.2154 20.2906ZM25.4073 17.4185C24.1275 17.4185 23.2092 16.8226 23.2092 15.6796C23.2092 14.5073 24.1763 13.9309 25.6417 13.7257C26.5503 13.5987 28.0352 13.3838 28.5334 13.0517V14.644C28.5334 16.2169 27.2341 17.4185 25.4073 17.4185Z" fill="#243443"/>
<path d="M43.8759 5.00183H41.0526V1.40677H36.891V5.00183H34.8394V8.12798H36.891V15.9433C36.8714 18.8839 38.8741 20.3395 41.8928 20.2125C42.9674 20.1734 43.7294 19.9585 44.1495 19.8217L43.4949 16.7249C43.2898 16.764 42.8502 16.8616 42.4594 16.8616C41.629 16.8616 41.0526 16.549 41.0526 15.3963V8.12798H43.8759V5.00183Z" fill="#243443"/>
<path d="M50.8658 20.2906C53.0834 20.2906 54.5195 19.3235 55.2522 17.9265H55.3694V20.0073H59.3162V9.88643C59.3162 6.3109 56.2877 4.80645 52.9466 4.80645C49.3516 4.80645 46.9874 6.52583 46.411 9.2612L50.2601 9.57382C50.5434 8.57736 51.4324 7.84467 52.9271 7.84467C54.3436 7.84467 55.1545 8.55782 55.1545 9.78874V9.84736C55.1545 10.8145 54.1287 10.9415 51.5203 11.1955C48.5505 11.469 45.8835 12.4655 45.8835 15.8163C45.8835 18.7862 48.0034 20.2906 50.8658 20.2906ZM52.0576 17.4185C50.7779 17.4185 49.8596 16.8226 49.8596 15.6796C49.8596 14.5073 50.8267 13.9309 52.2921 13.7257C53.2006 13.5987 54.6856 13.3838 55.1838 13.0517V14.644C55.1838 16.2169 53.8845 17.4185 52.0576 17.4185Z" fill="#243443"/>
<path fill-rule="evenodd" clip-rule="evenodd" d="M70.4573 20.0073H62.623V0H66.8531V16.5197H73.8715C72.2695 17.0992 70.9931 18.3857 70.4573 20.0073Z" fill="#243443"/>
</svg>
