<svg width="172" height="48" viewBox="0 0 172 48" fill="none" xmlns="http://www.w3.org/2000/svg">
<path d="M16.5047 46.5586C30.6905 46.5586 39.2839 37.7834 39.2839 23.2339C39.2839 8.72974 30.6905 0 16.6411 0H0V46.5586H16.5047ZM9.8437 38.1244V8.43421H16.1182C24.8479 8.43421 29.4629 12.89 29.4629 23.2339C29.4629 33.6232 24.8479 38.1244 16.0955 38.1244H9.8437Z" fill="white"/>
<path d="M56.3512 47.2179C61.5117 47.2179 64.8536 44.9673 66.5586 41.7164H66.8314V46.5586H76.0158V23.0065C76.0158 14.686 68.9684 11.185 61.1935 11.185C52.8275 11.185 47.3259 15.1861 45.9846 21.5516L54.9417 22.279C55.601 19.9602 57.6697 18.2552 61.148 18.2552C64.4444 18.2552 66.3313 19.9147 66.3313 22.7792V22.9156C66.3313 25.1662 63.9442 25.4618 57.8743 26.0528C50.9633 26.6894 44.757 29.0082 44.757 36.8059C44.757 43.7169 49.6902 47.2179 56.3512 47.2179ZM59.1247 40.5342C56.1466 40.5342 54.0096 39.1474 54.0096 36.4876C54.0096 33.7596 56.2603 32.4183 59.6703 31.9409C61.7845 31.6453 65.2401 31.1452 66.3995 30.3722V34.0778C66.3995 37.738 63.3759 40.5342 59.1247 40.5342Z" fill="white"/>
<path d="M102.103 11.6397H95.5327V3.27365H85.8482V11.6397H81.0741V18.9144H85.8482V37.1014C85.8027 43.9443 90.4631 47.3316 97.4878 47.036C99.9885 46.9451 101.762 46.445 102.739 46.1267L101.216 38.9201C100.739 39.011 99.7157 39.2384 98.8064 39.2384C96.874 39.2384 95.5327 38.5109 95.5327 35.8283V18.9144H102.103V11.6397Z" fill="white"/>
<path d="M118.369 47.2179C123.529 47.2179 126.871 44.9673 128.576 41.7164H128.849V46.5586H138.033V23.0065C138.033 14.686 130.986 11.185 123.211 11.185C114.845 11.185 109.343 15.1861 108.002 21.5516L116.959 22.279C117.619 19.9602 119.687 18.2552 123.166 18.2552C126.462 18.2552 128.349 19.9147 128.349 22.7792V22.9156C128.349 25.1662 125.962 25.4618 119.892 26.0528C112.981 26.6894 106.775 29.0082 106.775 36.8059C106.775 43.7169 111.708 47.2179 118.369 47.2179ZM121.142 40.5342C118.164 40.5342 116.027 39.1474 116.027 36.4876C116.027 33.7596 118.278 32.4183 121.688 31.9409C123.802 31.6453 127.258 31.1452 128.417 30.3722V34.0778C128.417 37.738 125.393 40.5342 121.142 40.5342Z" fill="white"/>
<path fill-rule="evenodd" clip-rule="evenodd" d="M163.96 46.5586H145.729V0H155.572V38.4427H171.905C168.177 39.7912 165.207 42.785 163.96 46.5586Z" fill="white"/>
</svg>
