<svg width="187" height="61" viewBox="0 0 187 61" fill="none" xmlns="http://www.w3.org/2000/svg">
<path d="M17.1104 47.1325C31.2963 47.1325 39.8896 38.3573 39.8896 23.8077C39.8896 9.3036 31.2963 0.573853 17.2468 0.573853H0.605743V47.1325H17.1104ZM10.4494 38.6983V9.00806H16.7239C25.4537 9.00806 30.0686 13.4639 30.0686 23.8077C30.0686 34.197 25.4537 38.6983 16.7012 38.6983H10.4494Z" fill="white"/>
<path d="M56.9569 47.7918C62.1175 47.7918 65.4593 45.5411 67.1644 42.2902H67.4372V47.1325H76.6216V23.5804C76.6216 15.2598 69.5741 11.7588 61.7992 11.7588C53.4332 11.7588 47.9316 15.76 46.5904 22.1254L55.5474 22.8529C56.2067 20.534 58.2755 18.829 61.7537 18.829C65.0501 18.829 66.937 20.4886 66.937 23.353V23.4894C66.937 25.7401 64.55 26.0356 58.4801 26.6267C51.569 27.2632 45.3627 29.5821 45.3627 37.3797C45.3627 44.2908 50.296 47.7918 56.9569 47.7918ZM59.7304 41.1081C56.7523 41.1081 54.6154 39.7213 54.6154 37.0615C54.6154 34.3334 56.866 32.9921 60.2761 32.5147C62.3903 32.2192 65.8458 31.719 67.0052 30.9461V34.6517C67.0052 38.3118 63.9816 41.1081 59.7304 41.1081Z" fill="white"/>
<path d="M102.709 12.2135H96.1385V3.84751H86.4539V12.2135H81.6798V19.4883H86.4539V37.6753C86.4084 44.5181 91.0689 47.9054 98.0936 47.6099C100.594 47.519 102.368 47.0188 103.345 46.7005L101.822 39.494C101.344 39.5849 100.321 39.8122 99.4121 39.8122C97.4798 39.8122 96.1385 39.0848 96.1385 36.4022V19.4883H102.709V12.2135Z" fill="white"/>
<path d="M118.974 47.7918C124.135 47.7918 127.477 45.5411 129.182 42.2902H129.455V47.1325H138.639V23.5804C138.639 15.2598 131.592 11.7588 123.817 11.7588C115.451 11.7588 109.949 15.76 108.608 22.1254L117.565 22.8529C118.224 20.534 120.293 18.829 123.771 18.829C127.068 18.829 128.955 20.4886 128.955 23.353V23.4894C128.955 25.7401 126.568 26.0356 120.498 26.6267C113.587 27.2632 107.38 29.5821 107.38 37.3797C107.38 44.2908 112.313 47.7918 118.974 47.7918ZM121.748 41.1081C118.77 41.1081 116.633 39.7213 116.633 37.0615C116.633 34.3334 118.884 32.9921 122.294 32.5147C124.408 32.2192 127.863 31.719 129.023 30.9461V34.6517C129.023 38.3118 125.999 41.1081 121.748 41.1081Z" fill="white"/>
<path fill-rule="evenodd" clip-rule="evenodd" d="M164.566 47.1325H146.335V0.573853H156.178V39.0166H172.511C168.783 40.3651 165.812 43.3588 164.566 47.1325Z" fill="white"/>
<path d="M176.951 61C182.189 61 186.731 56.6215 186.772 51.1791C186.731 45.8185 182.189 41.4399 176.951 41.4399C171.55 41.4399 167.089 45.8185 167.13 51.1791C167.089 56.6215 171.55 61 176.951 61Z" fill="#FFAB21"/>
</svg>
