<svg width="50" height="50" viewBox="0 0 50 50" fill="none" xmlns="http://www.w3.org/2000/svg">
<path d="M2.34375 49.2188L35.1562 49.2188" stroke="#F79E1B" stroke-linecap="round" stroke-linejoin="round"/>
<path d="M40.5 1.5C41.1114 0.890979 42.8886 0.890979 43.5 1.5L48.8241 6.81436C49.4354 7.42338 49.5234 9.35973 48.912 9.96875L46.412 12.4688L37.912 3.96875C37.912 3.96875 38.5302 3.39262 39.1416 2.7836L40.5 1.5Z" fill="#F79E1B"/>
<path d="M3.17034 48.8367C4.08887 48.3792 4.28505 47.154 3.55529 46.4326C2.83066 45.7162 1.6176 45.9176 1.16332 46.8297C0.523087 48.1151 1.88493 49.4769 3.17034 48.8367Z" fill="#F79E1B"/>
<path d="M6.34239 35.2224L2.04962 45.3787M6.34239 35.2224L8.69516 37.5662M6.34239 35.2224L37.7126 3.97243M2.04962 45.3787L1.56236 46.5315C1.01666 47.8226 2.3206 49.1215 3.61663 48.5779L4.77388 48.0925M2.04962 45.3787L4.77388 48.0925M14.9692 43.8162L4.77388 48.0925M14.9692 43.8162L12.6164 41.4724M14.9692 43.8162L46.3394 12.5662M12.6164 41.4724L8.69516 37.5662M12.6164 41.4724L43.9867 10.2224M8.69516 37.5662L40.0654 6.31618M37.7126 3.97243L39.5503 2.11046C40.7753 0.890069 42.7616 0.890072 43.9867 2.11046L48.1771 6.28479C49.4022 7.50518 49.4022 9.48382 48.1771 10.7042L46.3394 12.5662M37.7126 3.97243L40.0654 6.31618M46.3394 12.5662L43.9867 10.2224M40.0654 6.31618L43.9867 10.2224" stroke="#243443" stroke-linecap="round" stroke-linejoin="round"/>
</svg>
