<svg width="22" height="24" viewBox="0 0 22 24" fill="none" xmlns="http://www.w3.org/2000/svg">
<path fill-rule="evenodd" clip-rule="evenodd" d="M1.83203 6C1.83203 5.44772 2.24212 5 2.748 5H19.2354C19.7413 5 20.1514 5.44772 20.1514 6C20.1514 6.55228 19.7413 7 19.2354 7H2.748C2.24212 7 1.83203 6.55228 1.83203 6Z" fill="white"/>
<path fill-rule="evenodd" clip-rule="evenodd" d="M9.15976 3C8.91683 3 8.68385 3.10536 8.51208 3.29289C8.3403 3.48043 8.2438 3.73478 8.2438 4V5H13.7396V4C13.7396 3.73478 13.6431 3.48043 13.4713 3.29289C13.2995 3.10536 13.0666 3 12.8236 3H9.15976ZM15.5715 5V4C15.5715 3.20435 15.282 2.44129 14.7667 1.87868C14.2514 1.31607 13.5524 1 12.8236 1H9.15976C8.43097 1 7.73204 1.31607 7.2167 1.87868C6.70137 2.44129 6.41186 3.20435 6.41186 4V5H4.57993C4.07406 5 3.66396 5.44772 3.66396 6V20C3.66396 20.7957 3.95347 21.5587 4.4688 22.1213C4.98414 22.6839 5.68307 23 6.41186 23H15.5715C16.3003 23 16.9993 22.6839 17.5146 22.1213C18.0299 21.5587 18.3194 20.7957 18.3194 20V6C18.3194 5.44772 17.9093 5 17.4035 5H15.5715ZM5.4959 7V20C5.4959 20.2652 5.5924 20.5196 5.76418 20.7071C5.93595 20.8946 6.16893 21 6.41186 21H15.5715C15.8145 21 16.0474 20.8946 16.2192 20.7071C16.391 20.5196 16.4875 20.2652 16.4875 20V7H5.4959Z" fill="white"/>
<path fill-rule="evenodd" clip-rule="evenodd" d="M9.15976 10C9.66564 10 10.0757 10.4477 10.0757 11V17C10.0757 17.5523 9.66564 18 9.15976 18C8.65389 18 8.2438 17.5523 8.2438 17V11C8.2438 10.4477 8.65389 10 9.15976 10Z" fill="white"/>
<path fill-rule="evenodd" clip-rule="evenodd" d="M12.8236 10C13.3295 10 13.7396 10.4477 13.7396 11V17C13.7396 17.5523 13.3295 18 12.8236 18C12.3178 18 11.9077 17.5523 11.9077 17V11C11.9077 10.4477 12.3178 10 12.8236 10Z" fill="white"/>
</svg>
